Coordinates
version=1
nRows=18
nColumns=22
inDegrees=yes

Units are S.I. units (second, meters, Newtons, ...)
If the header above contains a line with 'inDegrees', this indicates whether rotational values are in degrees (yes) or radians (no).

endheader
time	pelvis_tilt	pelvis_list	pelvis_rotation	pelvis_tx	pelvis_ty	pelvis_tz	hip_flexion_r	hip_adduction_r	hip_rotation_r	knee_angle_r	ankle_angle_r	subtalar_angle_r	hip_flexion_l	hip_adduction_l	hip_rotation_l	knee_angle_l	ankle_angle_l	subtalar_angle_l	lumbar_extension	lumbar_bending	lumbar_rotation
      3.93000000	     -4.74203019	      1.98622961	    -35.07921458	      0.17013395	      0.86491894	      0.33742294	     31.40771738	     -3.75477249	     -0.76760960	    -23.32754712	      8.76982043	      1.33507072	     -5.11993967	      1.79393386	      5.72393323	     -8.50206754	     20.88729080	     -4.09361173	     -0.48086200	      1.89180081	      3.94711004
      3.94000000	     -4.78294553	      2.04766923	    -34.92978008	      0.17464144	      0.86381562	      0.34056080	     31.56743442	     -3.74784267	     -0.72168491	    -21.33301085	      8.35501992	      1.63468911	     -5.34318929	      1.82513759	      5.83473077	     -8.70155789	     21.16052641	     -4.14959076	     -0.47136873	      1.92597871	      3.95238076
      3.95000000	     -4.81721625	      2.12570860	    -34.77947066	      0.17921699	      0.86267680	      0.34375200	     31.71310406	     -3.76195179	     -0.66234048	    -19.39055924	      7.97607571	      1.94787650	     -5.56794495	      1.87516074	      5.93832798	     -8.90267613	     21.42294546	     -4.20343379	     -0.45782981	      1.94598480	      3.95980243
      3.96000000	     -4.83244620	      2.22280448	    -34.62272920	      0.18385911	      0.86151536	      0.34698876	     31.84196159	     -3.80995410	     -0.60769474	    -17.52071941	      7.60969871	      2.35198130	     -5.80726088	      1.95194838	      6.05155002	     -9.09713849	     21.66930582	     -4.24912050	     -0.45239664	      1.93957265	      3.96007237
      3.97000000	     -4.88102505	      2.32515365	    -34.45811112	      0.18855032	      0.86028452	      0.35032297	     31.98093155	     -3.84413619	     -0.59094689	    -15.72002524	      7.24464290	      2.66650848	     -6.01185901	      2.00472316	      6.14995694	     -9.30988134	     21.90747601	     -4.26986000	     -0.40971151	      1.94760952	      3.97013926
      3.98000000	     -4.91510553	      2.42510973	    -34.27505676	      0.19332503	      0.85905731	      0.35371013	     32.08610711	     -3.89714694	     -0.63206746	    -14.00754885	      6.85879857	      3.11765402	     -6.23785835	      2.05785146	      6.27789622	     -9.52165447	     22.12410511	     -4.26153164	     -0.38353914	      1.95091564	      3.97351660
      3.99000000	     -4.93759506	      2.53030396	    -34.07477058	      0.19817880	      0.85782379	      0.35718632	     32.16810934	     -3.96909053	     -0.73200763	    -12.40391200	      6.45784706	      3.70894693	     -6.48188653	      2.11108813	      6.42970386	     -9.72613646	     22.32287349	     -4.21224516	     -0.36246728	      1.93916276	      3.95708522
      4.00000000	     -4.96307072	      2.62387787	    -33.85710745	      0.20310746	      0.85659260	      0.36077688	     32.21975251	     -4.03268004	     -0.90135306	    -10.91028880	      6.04621150	      4.39490770	     -6.73998421	      2.13648028	      6.60786288	     -9.92472055	     22.49842240	     -4.12421873	     -0.34455573	      1.93328883	      3.93386525
      4.01000000	     -4.99916509	      2.69817113	    -33.62179064	      0.20815807	      0.85536242	      0.36449731	     32.23672204	     -4.07865166	     -1.15109374	     -9.53524379	      5.62742075	      5.12171266	     -7.01881523	      2.12097457	      6.81043526	    -10.10833739	     22.65250105	     -4.00701329	     -0.31862086	      1.95028809	      3.89510538
      4.02000000	     -5.00655456	      2.79080791	    -33.37796300	      0.21325601	      0.85413735	      0.36829629	     32.23168717	     -4.15336645	     -1.41760881	     -8.31795949	      5.22188043	      6.01932693	     -7.32077589	      2.12481494	      7.05332263	    -10.28318583	     22.77671352	     -3.83044642	     -0.31393281	      1.92788758	      3.85431806
      4.03000000	     -5.03323272	      2.86106846	    -33.11146565	      0.21847892	      0.85289989	      0.37221682	     32.19294916	     -4.20237278	     -1.75342684	     -7.23858150	      4.86545640	      6.86197482	     -7.64163201	      2.07643962	      7.31634945	    -10.43065108	     22.88709611	     -3.63187605	     -0.29358697	      1.93926646	      3.76836351
      4.04000000	     -5.04229649	      2.95494259	    -32.84345354	      0.22373889	      0.85164271	      0.37624397	     32.15126949	     -4.27117328	     -2.09354194	     -6.34948782	      4.54975997	      7.76428964	     -7.97461414	      2.04259876	      7.60248672	    -10.56851891	     22.96594824	     -3.37374000	     -0.27688635	      1.90753340	      3.69197526
      4.05000000	     -5.05257764	      3.03726195	    -32.55742411	      0.22911988	      0.85037634	      0.38036776	     32.08082945	     -4.33226500	     -2.47121958	     -5.63989243	      4.31632394	      8.58227621	     -8.33521793	      1.97939971	      7.90836207	    -10.68020741	     23.03650646	     -3.07853077	     -0.25621919	      1.89153393	      3.57482546
      4.06000000	     -5.06336620	      3.12969397	    -32.26411250	      0.23458470	      0.84908177	      0.38459379	     32.00875700	     -4.39757794	     -2.86197578	     -5.13103559	      4.13527887	      9.31364806	     -8.70806820	      1.90916771	      8.22752659	    -10.76984568	     23.08215718	     -2.74194791	     -0.22277960	      1.86512870	      3.43979146
      4.07000000	     -5.08334886	      3.22393981	    -31.95122898	      0.24012923	      0.84776841	      0.38893010	     31.93524616	     -4.46106227	     -3.28385948	     -4.82240642	      4.00636050	      9.86095035	     -9.08682662	      1.81611778	      8.56224830	    -10.84113220	     23.08325703	     -2.40646581	     -0.17159871	      1.83453054	      3.28578983
      4.08000000	     -5.10107061	      3.33196013	    -31.65204998	      0.24573411	      0.84643789	      0.39339162	     31.85183285	     -4.52530092	     -3.66417422	     -4.68218670	      3.85504953	     10.35784122	     -9.47650895	      1.72807824	      8.88272035	    -10.89725532	     23.07486622	     -2.01443063	     -0.10831143	      1.79024219	      3.11862420
      4.09000000	     -5.13417562	      3.44530240	    -31.34838714	      0.25139449	      0.84510148	      0.39797910	     31.76259163	     -4.58282574	     -4.01136888	     -4.68966416	      3.63770330	     10.69667156	     -9.86418166	      1.62346135	      9.18925861	    -10.93566061	     23.03803653	     -1.62406274	     -0.02001642	      1.74523660	      2.93154111
      4.10000000	     -5.19183571	      3.55113624	    -31.04100079	      0.25710388	      0.84379085	      0.40269311	     31.65908829	     -4.61858694	     -4.33335507	     -4.80255486	      3.29613866	     10.86855507	    -10.24471488	      1.48893901	      9.50643885	    -10.96486409	     22.95270043	     -1.25755752	      0.09353413	      1.71523907	      2.74174537
